<?xml version='1.0' encoding='iso-8859-1'?>
<svg version="1.1" xmlns="http://www.w3.org/2000/svg" viewBox="0 0 64 64" xmlns:xlink="http://www.w3.org/1999/xlink" enable-background="new 0 0 64 64">
  <g>
    <g>
      <path d="M59.734,3.001l-55.467-3L0,63.999l64-3L59.734,3.001z M8.5,6l47-1l6,53.876L3.125,57.751L8.5,6z M48.208,13.039    l-7.958,1.087l-0.75,2.875l2.371,0.051c0,0,2.752,17.085-9.871,17.085c-14.917,0-12.5-17.069-12.5-17.069h2.769l1.158-2.942    l-9.353-1.524l0.859,4.466h2.134c0,0-3.04,20.904,14.933,20.871c18.062-0.035,15.5-20.871,15.5-20.871H50L48.208,13.039z"/>
    </g>
  </g>
</svg>
